<mxfile
  host="Electron" 
  agent="Mozilla/5.0 (Macintosh; Intel Mac OS X 10_15_7) AppleWebKit/537.36 (KHTML, like Gecko) draw.io/25.0.2 Chrome/128.0.6613.186 Electron/32.2.5 Safari/537.36" 
  version="25.0.2"
  >
  <diagram
    name="-"
    >
    <mxGraphModel
      grid="1" 
      gridSize="10" 
      guides="1" 
      tooltips="1" 
      connect="1" 
      arrows="1" 
      fold="1" 
      page="1" 
      pageScale="1" 
      pageWidth="1" 
      pageHeight="1" 
      math="0" 
      shadow="0"
      >
      <root>
        <mxCell
          id="page"
          />
        <mxCell
          id="root" 
          parent="page"
          />
        <mxCell
          style="verticalAlign=top;aspect=fixed;align=center;spacingLeft=5;spacingRight=5;spacingBottom=5;strokeColor=none;" 
          id="shape_" 
          parent="root" 
          value=" " 
          vertex="1"
          >
          <mxGeometry
            as="geometry" 
            width="48" 
            height="48" 
            x="0" 
            y="0"
            />
          </mxCell>
        <mxCell
          style="shape=image;verticalLabelPosition=bottom;labelBackgroundColor=default;verticalAlign=top;aspect=fixed;imageAspect=0;editableCssRules=.*;image=data:image/svg+xml,PHN2ZyB4bWxuczp4bGluaz0iaHR0cDovL3d3dy53My5vcmcvMTk5OS94bGluayIgeG1sbnM9Imh0dHA6Ly93d3cudzMub3JnLzIwMDAvc3ZnIiB2aWV3Qm94PSIwLjA1MDAwMTA1NTAwMjIxMjUyNCAwLjA0MDAwMDAwMjgzMTIyMDYzIDIzLjk5OTk5ODA5MjY1MTM2NyAyNC4wMTk5OTg1NTA0MTUwNCIgdmVyc2lvbj0iMS4xIiBpZD0iTGF5ZXJfMSIgd2lkdGg9IjIzLjk5OTk5ODA5MjY1MTM2NyIgaGVpZ2h0PSIyNC4wMTk5OTg1NTA0MTUwNCI+JiN4YTsgIDxzdHlsZSB0eXBlPSJ0ZXh0L2NzcyI+LnN0MCB7IHN0b3AtY29sb3I6IHJnYigzNSwgMTQ5LCAyNTUpOyB9IC5zdDEgeyBzdG9wLWNvbG9yOiByZ2IoMCwgODcsIDIxMCk7IH0gPC9zdHlsZT4mI3hhOyAgPGRlZnM+JiN4YTsgICAgPGxpbmVhckdyYWRpZW50IGlkPSJBIiB4MT0iMCIgeTE9IjAiIHgyPSIyNCIgeTI9IjI0IiBncmFkaWVudFVuaXRzPSJ1c2VyU3BhY2VPblVzZSI+JiN4YTsgICAgICA8c3RvcCBjbGFzcz0ic3QwIi8+JiN4YTsgICAgICA8c3RvcCBvZmZzZXQ9IjEiIGNsYXNzPSJzdDEiLz4mI3hhOyAgICA8L2xpbmVhckdyYWRpZW50PiYjeGE7ICA8L2RlZnM+JiN4YTsgIDxwYXRoIGZpbGw9InVybCgjQSkiIGQ9Ik0yMi4yNiwxNS42MWMuMjUuMDkuNDIuMjUuNTIuNDcuMTIuMTkuMTkuNDEuMTkuNjYsMCwuMTMtLjAzLjI4LS4wOS40Ny0xLDIuMTItMi40NywzLjgtNC40MSw1LjAyLTEuOTEsMS4yMi00LjA1LDEuODMtNi40MiwxLjgzLTEuODgsMC0zLjY2LS40NC01LjM0LTEuMzEtMS42Ni0uODQtMy4wOC0yLjAzLTQuMjctMy41NnYyLjE2YzAsLjM0LS4xMS42NC0uMzMuODktLjIyLjIyLS41LjMzLS44NC4zM3MtLjY0LS4xMS0uODktLjMzYy0uMjItLjI1LS4zMy0uNTUtLjMzLS44OXYtNC42NGMwLS4zNC4xMS0uNjIuMzMtLjg0LjI1LS4yMi41NS0uMzMuODktLjMzaDQuNTljLjM0LDAsLjYyLjExLjg0LjMzLjI1LjIyLjM4LjUuMzguODRzLS4xMi42NC0uMzguODljLS4yMi4yMi0uNS4zMy0uODQuMzNoLTEuMzFjLjkxLDEuMTksMi4wMiwyLjExLDMuMzMsMi43NywxLjM0LjY2LDIuNzMuOTgsNC4xNy45OCwxLjg4LDAsMy41OC0uNDgsNS4xMS0xLjQ1LDEuNTYtMSwyLjczLTIuMzQsMy41Mi00LjAzLjE2LS4yOC4zOS0uNDguNy0uNjEuMzEtLjEyLjYxLS4xMS44OS4wNVpNMjIuODMsMS41OWMuMzQsMCwuNjIuMTIuODQuMzguMjUuMjIuMzguNS4zOC44NHY0LjY0YzAsLjM0LS4xMi42My0uMzguODQtLjIyLjIyLS41LjMzLS44NC4zM2gtNC41OWMtLjM0LDAtLjY0LS4xMS0uODktLjMzLS4yMi0uMjItLjMzLS41LS4zMy0uODRzLjExLS42My4zMy0uODRjLjI1LS4yNS41NS0uMzguODktLjM4aDEuMzFjLS45NC0xLjE5LTIuMDYtMi4xMS0zLjM4LTIuNzctMS4zMS0uNjYtMi42OS0uOTgtNC4xMi0uOTgtMS45MSwwLTMuNjMuNDgtNS4xNiwxLjQ1LTEuNTMuOTctMi42OSwyLjMtMy40NywzLjk4LS4wOS4yNS0uMjUuNDQtLjQ3LjU2LS4xOS4wOS0uMzkuMTQtLjYxLjE0LS4yNSwwLS40Mi0uMDMtLjUyLS4wOS0uMjUtLjA5LS40NC0uMjMtLjU2LS40Mi0uMDktLjIyLS4xNC0uNDQtLjE0LS42NiwwLS4xNi4wMy0uMzMuMDktLjUyLDEtMi4xMywyLjQ1LTMuOCw0LjM2LTUuMDJDNy41MS42Nyw5LjY3LjA0LDEyLjA0LjA0YzEuODgsMCwzLjY0LjQ0LDUuMywxLjMxLDEuNjkuODgsMy4xMiwyLjA4LDQuMzEsMy42MXYtMi4xNmMwLS4zNC4xMS0uNjIuMzMtLjg0LjIyLS4yNS41LS4zOC44NC0uMzhaIi8+JiN4YTs8L3N2Zz4;strokeColor=none;" 
          id="synchronize_sap_" 
          parent="shape_" 
          value=" " 
          vertex="1"
          >
          <mxGeometry
            width="28" 
            height="28" 
            as="geometry" 
            x="10" 
            y="10"
            />
          </mxCell>
        </root>
      </mxGraphModel>
    </diagram>
  </mxfile>